<?xml version="1.0" encoding="utf-8"?>
<svg width="100%" height="100%" viewBox="0 0 518.421 232.716" version="1.1" style="fill-rule:evenodd;clip-rule:evenodd;" xmlns="http://www.w3.org/2000/svg">
  <defs>
    <linearGradient gradientUnits="userSpaceOnUse" x1="292.077" y1="126.819" x2="292.077" y2="195.702" id="gradient-0" gradientTransform="matrix(-0.11318, 0.993575, -4.857691, -0.553354, 1121.092285, -41.474884)">
      <stop offset="0" style="stop-color: rgb(174, 174, 0);"/>
      <stop offset="1" style="stop-color: rgb(174, 0, 174);"/>
    </linearGradient>
    <linearGradient gradientUnits="userSpaceOnUse" x1="292.077" y1="126.819" x2="292.077" y2="195.702" id="gradient-14" gradientTransform="matrix(-0.11318, 0.993575, -4.857691, -0.553354, 1166.092285, -41.474884)">
      <stop offset="0" style="stop-color: rgb(174, 174, 0);"/>
      <stop offset="1" style="stop-color: rgb(174, 0, 174);"/>
    </linearGradient>
    <linearGradient gradientUnits="userSpaceOnUse" x1="292.077" y1="126.819" x2="292.077" y2="195.702" id="gradient-12" gradientTransform="matrix(-0.11318, 0.993575, -4.857691, -0.553354, 1166.092285, -41.474884)">
      <stop offset="0" style="stop-color: rgb(174, 174, 0);"/>
      <stop offset="1" style="stop-color: rgb(174, 0, 174);"/>
    </linearGradient>
    <linearGradient gradientUnits="userSpaceOnUse" x1="292.077" y1="126.819" x2="292.077" y2="195.702" id="gradient-11" gradientTransform="matrix(-0.11318, 0.993575, -4.857691, -0.553354, 1166.092285, -41.474884)">
      <stop offset="0" style="stop-color: rgb(174, 174, 0);"/>
      <stop offset="1" style="stop-color: rgb(174, 0, 174);"/>
    </linearGradient>
    <linearGradient gradientUnits="userSpaceOnUse" x1="292.077" y1="126.819" x2="292.077" y2="195.702" id="gradient-10" gradientTransform="matrix(-0.11318, 0.993575, -4.857691, -0.553354, 1166.092285, -41.474884)">
      <stop offset="0" style="stop-color: rgb(174, 174, 0);"/>
      <stop offset="1" style="stop-color: rgb(174, 0, 174);"/>
    </linearGradient>
    <linearGradient gradientUnits="userSpaceOnUse" x1="292.077" y1="126.819" x2="292.077" y2="195.702" id="gradient-7" gradientTransform="matrix(-0.11318, 0.993575, -4.857691, -0.553354, 1121.092285, -41.474884)">
      <stop offset="0" style="stop-color: rgb(174, 174, 0);"/>
      <stop offset="1" style="stop-color: rgb(174, 0, 174);"/>
    </linearGradient>
    <linearGradient gradientUnits="userSpaceOnUse" x1="292.077" y1="126.819" x2="292.077" y2="195.702" id="gradient-5" gradientTransform="matrix(-0.11318, 0.993575, -4.857691, -0.553354, 1121.092285, -41.474884)">
      <stop offset="0" style="stop-color: rgb(174, 174, 0);"/>
      <stop offset="1" style="stop-color: rgb(174, 0, 174);"/>
    </linearGradient>
    <linearGradient gradientUnits="userSpaceOnUse" x1="292.077" y1="126.819" x2="292.077" y2="195.702" id="gradient-3" gradientTransform="matrix(-0.11318, 0.993575, -4.857691, -0.553354, 1121.092285, -41.474884)">
      <stop offset="0" style="stop-color: rgb(174, 174, 0);"/>
      <stop offset="1" style="stop-color: rgb(174, 0, 174);"/>
    </linearGradient>
    <linearGradient gradientUnits="userSpaceOnUse" x1="292.077" y1="126.819" x2="292.077" y2="195.702" id="gradient-1" gradientTransform="matrix(-0.11318, 0.993575, -4.857691, -0.553354, 1121.092285, -41.474884)">
      <stop offset="0" style="stop-color: rgb(174, 174, 0);"/>
      <stop offset="1" style="stop-color: rgb(174, 0, 174);"/>
    </linearGradient>
    <linearGradient gradientUnits="userSpaceOnUse" x1="429.567" y1="81.822" x2="429.567" y2="126.143" id="gradient-2" gradientTransform="matrix(0.011721, 0.999931, -8.820542, 0.096306, 1257.852183, -290.608211)">
      <stop offset="0" style="stop-color: rgb(68.235% 68.235% 0%)"/>
      <stop offset="1" style="stop-color: rgb(174, 0, 174);"/>
    </linearGradient>
    <linearGradient gradientUnits="userSpaceOnUse" x1="248.687" y1="114.317" x2="248.687" y2="119.407" id="gradient-4" gradientTransform="matrix(-0.012563, -0.99992, 76.689381, -0.963693, -8613.786151, 508.35642)">
      <stop offset="0" style="stop-color: rgb(68.235% 0% 68.235%)"/>
      <stop offset="1" style="stop-color: rgb(174, 174, 0);"/>
    </linearGradient>
  </defs>
  <g id="layer1" style="" transform="matrix(1, 0, 0, 1, -82.79001, -45.848504)">
    <g>
      <path id="rect24" d="M483.161,82.857C483.161,69.059 471.959,57.857 458.161,57.857L225.839,57.857C212.041,57.857 200.839,69.059 200.839,82.857L200.839,201.071C200.839,214.869 212.041,226.071 225.839,226.071L458.161,226.071C471.959,226.071 483.161,214.869 483.161,201.071L483.161,82.857Z" style="fill:rgb(153,153,153);"/>
      <path id="rect26" d="M471.375,84.304C471.375,75.473 464.206,68.304 455.375,68.304L228.625,68.304C219.794,68.304 212.625,75.473 212.625,84.304L212.625,199.625C212.625,208.456 219.794,215.625 228.625,215.625L455.375,215.625C464.206,215.625 471.375,208.456 471.375,199.625L471.375,84.304Z" style="fill:rgb(26,26,26);"/>
      <rect id="rect88" x="310.661" y="218.571" width="62.679" height="35.893" style="fill:rgb(153,153,153);"/>
      <path id="rect90" d="M425.839,247.679C425.839,244.919 423.599,242.679 420.839,242.679L263.161,242.679C260.401,242.679 258.161,244.919 258.161,247.679L258.161,253.214C258.161,255.974 260.401,258.214 263.161,258.214L420.839,258.214C423.599,258.214 425.839,255.974 425.839,253.214L425.839,247.679Z" style="fill:rgb(153,153,153);"/>
      <rect id="rect1492" x="94.761" y="258.025" width="494.479" height="8.531" style="fill: rgb(79, 88, 103); fill-opacity: 0.99;"/>
    </g>
    <g>
      <path id="rect1004" d="M471.375,84.497C471.375,75.667 464.206,68.497 455.375,68.497L401.179,68.497C392.348,68.497 385.179,75.667 385.179,84.497L385.179,199.625C385.179,208.456 392.348,215.625 401.179,215.625L455.375,215.625C464.206,215.625 471.375,208.456 471.375,199.625L471.375,84.497Z" style="fill:rgb(51,51,51);"/>
      <path id="rect1058" d="M461.008,88.822C461.008,84.959 457.872,81.822 454.008,81.822L405.126,81.822C401.263,81.822 398.126,84.959 398.126,88.822L398.126,119.143C398.126,123.006 401.263,126.143 405.126,126.143L454.008,126.143C457.872,126.143 461.008,123.006 461.008,119.143L461.008,88.822Z" style="fill: url('#gradient-2');"/>
    </g>
    <g>
      <g id="rect1008" transform="matrix(1,0,0,1,0.624972,0.0625022)">
        <path d="M282.589,90.937C282.589,89.533 281.449,88.393 280.045,88.393L221.92,88.393C220.515,88.393 219.375,89.533 219.375,90.937C219.375,92.342 220.515,93.482 221.92,93.482L280.045,93.482C281.449,93.482 282.589,92.342 282.589,90.937Z" style="fill:rgb(204,204,204);"/>
      </g>
      <g id="rect1008-0" transform="matrix(1,0,0,1,0.624972,0.14286)">
        <path d="M305.893,102.857C305.893,101.453 304.753,100.312 303.348,100.312L221.92,100.312C220.515,100.312 219.375,101.453 219.375,102.857C219.375,104.262 220.515,105.402 221.92,105.402L303.348,105.402C304.753,105.402 305.893,104.262 305.893,102.857Z" style="fill:rgb(204,204,204);"/>
      </g>
      <g id="rect1008-0-3" transform="matrix(1,0,0,1,0.177302,-0.862025)">
        <path d="M277.551,116.862C277.551,115.458 276.411,114.317 275.007,114.317L222.367,114.317C220.963,114.317 219.823,115.458 219.823,116.862C219.823,118.266 220.963,119.407 222.367,119.407L275.007,119.407C276.411,119.407 277.551,118.266 277.551,116.862Z" style="fill: url('#gradient-4');"/>
      </g>
      <g id="rect1008-0-8" transform="matrix(1,0,0,1,0.223169,-0.116073)">
        <path d="M306.295,128.571C306.295,127.167 305.154,126.027 303.75,126.027L222.321,126.027C220.917,126.027 219.777,127.167 219.777,128.571C219.777,129.976 220.917,131.116 222.321,131.116L303.75,131.116C305.154,131.116 306.295,129.976 306.295,128.571Z" style="fill:rgb(204,204,204);"/>
      </g>
      <path id="rect1008-0-36" d="M293.705,178.661C293.705,177.256 292.565,176.116 291.161,176.116L223.125,176.116C221.721,176.116 220.58,177.256 220.58,178.661C220.58,180.065 221.721,181.205 223.125,181.205L291.161,181.205C292.565,181.205 293.705,180.065 293.705,178.661Z" style="fill:rgb(204,204,204);"/>
      <g id="rect1008-0-2" transform="matrix(1,0,0,1,-0.866109,-0.0446406)">
        <path d="M329.866,192.589C329.866,191.185 328.726,190.045 327.321,190.045L223.393,190.045C221.988,190.045 220.848,191.185 220.848,192.589C220.848,193.994 221.988,195.134 223.393,195.134L327.321,195.134C328.726,195.134 329.866,193.994 329.866,192.589Z" style="fill:rgb(204,204,204);"/>
      </g>
    </g>
    <g id="layer2" transform="matrix(1, 0, 0, 1, 20.967005, 3.870991)">
      <rect id="rect1203" x="116.688" y="130.471" width="414.958" height="56.445" style="fill: rgb(28, 31, 36);"/>
      <path id="path1258" d="M334.703,149.454L334.703,184.414L311.133,180.981L313.498,139.138C313.513,138.65 313.54,138.164 313.58,137.68L313.586,137.579L313.589,137.578C314.839,122.99 327.091,111.523 342,111.523C356.909,111.523 369.162,122.99 370.411,137.578L370.414,137.579L370.42,137.68C370.46,138.163 370.487,138.649 370.502,139.138L372.867,180.981L349.297,184.414L349.297,149.454L361.429,149.454L361.429,136.618L322.571,136.618L322.571,149.454L334.703,149.454Z" style="fill:rgb(204,204,204);"/>
      <g transform="matrix(1, 0, 0, 1, -5, 0)">
        <path d="M 164.322 166.919 C 164.322 169.389 163.675 171.571 162.383 173.467 C 161.091 175.362 159.238 176.846 156.826 177.918 C 154.414 178.99 151.513 179.526 148.125 179.526 C 144.372 179.526 141.227 178.975 138.691 177.875 C 136.154 176.774 134.053 175.41 132.387 173.783 L 137.154 168.499 C 138.628 169.781 140.256 170.772 142.036 171.471 C 143.816 172.169 145.769 172.519 147.895 172.519 C 149.867 172.519 151.465 172.093 152.691 171.241 C 153.916 170.389 154.529 169.187 154.529 167.637 C 154.529 166.182 154.016 165.043 152.992 164.22 C 151.968 163.396 150.068 162.563 147.292 161.721 C 142.639 160.304 139.332 158.634 137.37 156.71 C 135.407 154.786 134.426 152.311 134.426 149.286 C 134.426 146.854 135.101 144.777 136.451 143.055 C 137.8 141.331 139.614 140.015 141.893 139.106 C 144.171 138.196 146.679 137.742 149.417 137.742 C 152.499 137.742 155.218 138.187 157.573 139.077 C 159.927 139.967 161.966 141.236 163.69 142.882 L 159.239 147.994 C 157.898 146.864 156.452 146.027 154.902 145.481 C 153.351 144.935 151.772 144.663 150.164 144.663 C 148.364 144.663 146.918 144.993 145.827 145.654 C 144.735 146.314 144.19 147.285 144.19 148.568 C 144.19 149.41 144.429 150.119 144.908 150.694 C 145.386 151.268 146.219 151.808 147.407 152.316 C 148.593 152.823 150.24 153.412 152.346 154.082 C 154.854 154.848 157.003 155.762 158.793 156.825 C 160.583 157.887 161.952 159.223 162.9 160.831 C 163.848 162.439 164.322 164.468 164.322 166.919 Z" style="fill: url('#gradient-0'); paint-order: fill;"/>
        <path d="M 286.652 145.524 L 290.959 163.128 L 282.344 163.128 L 286.652 145.524 Z M 294.607 178.55 L 304.687 178.55 L 292.51 138.747 L 281.081 138.747 L 268.904 178.55 L 278.754 178.55 L 280.851 169.963 L 292.51 169.963 L 294.607 178.55 Z" style="fill: url('#gradient-7'); paint-order: fill;"/>
        <path d="M 256.712 156.854 C 255.534 157.935 253.893 158.476 251.787 158.476 L 248.082 158.476 L 248.082 145.467 L 251.299 145.467 C 256.085 145.467 258.478 147.553 258.478 151.727 C 258.478 154.063 257.889 155.772 256.712 156.854 Z M 263.734 141.963 C 260.766 139.819 256.582 138.747 251.184 138.747 L 238.663 138.747 L 238.663 178.55 L 248.082 178.55 L 248.082 165.311 L 252.39 165.311 C 255.53 165.311 258.287 164.818 260.661 163.832 C 263.035 162.846 264.882 161.348 266.204 159.338 C 267.524 157.327 268.185 154.781 268.185 151.699 C 268.185 147.353 266.701 144.107 263.734 141.963 Z" style="fill: url('#gradient-5'); paint-order: fill;"/>
        <path d="M 221.55 155.432 C 220.478 156.389 218.917 156.868 216.869 156.868 L 213.366 156.868 L 213.366 145.352 L 216.496 145.352 C 218.697 145.352 220.358 145.787 221.478 146.659 C 222.598 147.529 223.158 148.922 223.158 150.837 C 223.158 152.943 222.622 154.474 221.55 155.432 Z M 228.73 141.705 C 225.972 139.733 221.885 138.747 216.467 138.747 L 203.946 138.747 L 203.946 178.55 L 213.366 178.55 L 213.366 163.329 L 216.036 163.329 L 224.652 178.55 L 235.306 178.55 L 224.881 161.75 C 227.102 160.869 228.988 159.543 230.539 157.773 C 232.089 156.001 232.865 153.689 232.865 150.837 C 232.865 146.721 231.486 143.677 228.73 141.705 Z" style="fill: url('#gradient-3'); paint-order: fill;"/>
        <path d="M 196.31 138.747 L 196.31 145.639 L 188.097 145.639 L 188.097 171.629 L 196.31 171.629 L 196.31 178.55 L 170.464 178.55 L 170.464 171.629 L 178.677 171.629 L 178.677 145.639 L 170.464 145.639 L 170.464 138.747 L 196.31 138.747 Z" style="fill: url('#gradient-1'); paint-order: fill;"/>
      </g>
      <g transform="matrix(1, 0, 0, 1, 2, 0)">
        <path d="M 506.877 178.55 L 496.395 146.529 C 496.567 147.659 496.768 149.109 496.998 150.88 C 497.228 152.651 497.424 154.618 497.587 156.782 C 497.749 158.945 497.831 161.195 497.831 163.531 L 497.831 178.55 L 489.819 178.55 L 489.819 138.747 L 501.565 138.747 L 511.731 170.595 C 511.424 168.776 511.108 166.45 510.783 163.617 C 510.457 160.783 510.295 157.576 510.295 153.996 L 510.295 138.747 L 518.307 138.747 L 518.307 178.55 L 506.877 178.55 Z" style="fill: url('#gradient-14'); paint-order: fill;"/>
        <path d="M 485.543 158.62 C 485.543 162.832 484.94 166.503 483.734 169.633 C 482.528 172.763 480.742 175.194 478.378 176.927 C 476.013 178.659 473.089 179.526 469.605 179.526 C 466.139 179.526 463.22 178.679 460.846 176.985 C 458.472 175.29 456.681 172.882 455.475 169.762 C 454.269 166.641 453.666 162.927 453.666 158.62 C 453.666 154.408 454.269 150.741 455.475 147.621 C 456.681 144.5 458.472 142.073 460.846 140.341 C 463.22 138.608 466.139 137.742 469.605 137.742 C 473.089 137.742 476.013 138.584 478.378 140.269 C 480.742 141.953 482.528 144.356 483.734 147.477 C 484.94 150.597 485.543 154.312 485.543 158.62 Z M 475.894 158.62 C 475.894 153.718 475.405 150.157 474.429 147.937 C 473.453 145.715 471.845 144.605 469.605 144.605 C 467.365 144.605 465.756 145.72 464.78 147.951 C 463.803 150.181 463.315 153.738 463.315 158.62 C 463.315 163.521 463.813 167.082 464.809 169.303 C 465.804 171.523 467.403 172.634 469.605 172.634 C 471.902 172.634 473.524 171.509 474.472 169.26 C 475.42 167.01 475.894 163.463 475.894 158.62 Z" style="fill: url('#gradient-12'); paint-order: fill;"/>
        <path d="M 436.611 179.526 C 430.963 179.526 426.65 177.741 423.673 174.171 C 420.696 170.6 419.208 165.397 419.208 158.562 C 419.208 154.044 420.031 150.239 421.677 147.147 C 423.323 144.055 425.544 141.714 428.34 140.125 C 431.135 138.536 434.256 137.742 437.702 137.742 C 440.612 137.742 443.062 138.192 445.054 139.092 C 447.045 139.991 448.816 141.178 450.367 142.653 L 445.427 147.764 C 444.221 146.692 443.062 145.897 441.952 145.381 C 440.842 144.863 439.578 144.605 438.162 144.605 C 436.381 144.605 434.797 145.079 433.409 146.027 C 432.021 146.974 430.925 148.477 430.121 150.536 C 429.316 152.594 428.914 155.288 428.914 158.62 C 428.914 162.085 429.196 164.842 429.762 166.891 C 430.326 168.939 431.183 170.408 432.332 171.299 C 433.48 172.189 434.935 172.634 436.697 172.634 C 437.635 172.634 438.515 172.524 439.339 172.304 C 440.162 172.084 440.928 171.792 441.636 171.428 L 441.636 162.324 L 436.639 162.324 L 435.721 155.719 L 450.539 155.719 L 450.539 175.506 C 448.547 176.731 446.408 177.707 444.121 178.435 C 441.833 179.162 439.329 179.526 436.611 179.526 Z" style="fill: url('#gradient-11'); paint-order: fill;"/>
        <path d="M 400.569 145.524 L 404.876 163.128 L 396.261 163.128 L 400.569 145.524 Z M 408.524 178.55 L 418.603 178.55 L 406.427 138.747 L 394.997 138.747 L 382.821 178.55 L 392.671 178.55 L 394.768 169.963 L 406.427 169.963 L 408.524 178.55 Z" style="fill: url('#gradient-10'); paint-order: fill;"/>
      </g>
      <path d="M 185.822 168.919 C 185.822 171.46 185.121 173.783 183.796 175.749 C 182.454 177.698 180.499 179.277 178.029 180.375 C 175.564 181.471 172.558 182.026 169.125 182.026 C 165.329 182.026 162.084 181.451 159.492 180.334 C 156.918 179.213 154.742 177.799 153.038 176.141 L 152.693 175.806 L 158.112 169.799 L 158.482 170.122 C 159.922 171.379 161.477 172.326 163.219 173.006 C 164.951 173.69 166.813 174.019 168.895 174.019 C 170.803 174.019 172.258 173.646 173.406 172.831 C 174.551 172.07 175.029 171.073 175.029 169.637 C 175.029 168.285 174.631 167.34 173.679 166.61 C 172.711 165.82 170.895 165.031 168.146 164.199 C 163.453 162.766 160.044 161.036 158.02 159.067 C 156 157.057 154.926 154.403 154.926 151.286 C 154.926 148.777 155.666 146.546 157.057 144.747 C 158.456 142.974 160.375 141.58 162.708 140.642 C 165.034 139.718 167.634 139.242 170.417 139.242 C 173.539 139.242 176.347 139.706 178.75 140.609 C 181.148 141.521 183.271 142.843 185.035 144.52 L 185.381 144.849 L 180.292 150.694 L 179.917 150.376 C 178.612 149.272 177.244 148.479 175.736 147.953 C 174.226 147.417 172.73 147.163 171.164 147.163 C 169.42 147.163 168.103 147.451 167.086 148.082 C 166.082 148.65 165.69 149.407 165.69 150.568 C 165.69 151.33 165.858 151.879 166.292 152.374 C 166.714 152.898 167.453 153.368 168.604 153.856 C 169.775 154.358 171.399 154.938 173.495 155.605 C 176.028 156.38 178.228 157.317 180.048 158.395 C 181.885 159.493 183.349 160.913 184.331 162.577 C 185.317 164.249 185.822 166.411 185.822 168.919 Z M 183.469 163.085 C 182.555 161.533 181.281 160.281 179.538 159.255 C 177.778 158.207 175.683 157.317 173.2 156.56 C 171.086 155.887 169.411 155.288 168.21 154.776 C 166.985 154.248 166.058 153.638 165.524 153.014 C 165 152.359 164.69 151.49 164.69 150.568 C 164.69 149.163 165.388 147.978 166.568 147.226 C 167.733 146.535 169.308 146.163 171.164 146.163 C 172.814 146.163 174.476 146.453 176.068 147.009 C 177.66 147.575 178.905 148.298 180.179 149.301 L 183.996 144.918 C 182.392 143.464 180.706 142.413 178.396 141.545 C 176.089 140.668 173.459 140.242 170.417 140.242 C 167.724 140.242 165.308 140.674 163.078 141.57 C 160.854 142.449 159.144 143.687 157.845 145.363 C 156.536 147.008 155.926 148.931 155.926 151.286 C 155.926 154.219 156.814 156.515 158.72 158.353 C 160.62 160.232 163.824 161.842 168.438 163.243 C 171.241 164.095 173.225 164.972 174.305 165.83 C 175.401 166.746 176.029 168.079 176.029 169.637 C 176.029 171.301 175.281 172.708 173.976 173.651 C 172.672 174.54 170.931 175.019 168.895 175.019 C 166.725 175.019 164.681 174.648 162.853 173.936 C 161.035 173.218 159.614 172.351 158.201 171.193 L 154.084 175.757 C 155.65 177.204 157.39 178.335 159.89 179.416 C 162.37 180.499 165.415 181.026 169.125 181.026 C 172.468 181.026 175.264 180.509 177.623 179.461 C 179.977 178.415 181.728 177.026 182.97 175.185 C 184.229 173.359 184.822 171.318 184.822 168.919 C 184.822 166.525 184.379 164.629 183.469 163.085 Z M 217.81 148.139 L 209.597 148.139 L 209.597 173.129 L 217.81 173.129 L 217.81 181.05 L 190.964 181.05 L 190.964 173.129 L 199.177 173.129 L 199.177 148.139 L 190.964 148.139 L 190.964 140.247 L 217.81 140.247 Z M 191.964 141.247 L 191.964 147.139 L 200.177 147.139 L 200.177 174.129 L 191.964 174.129 L 191.964 180.05 L 216.81 180.05 L 216.81 174.129 L 208.597 174.129 L 208.597 147.139 L 216.81 147.139 L 216.81 141.247 Z M 254.365 152.837 C 254.365 155.769 253.514 158.245 251.915 160.103 C 250.32 161.912 248.658 163.076 246.614 163.983 L 257.205 181.05 L 245.36 181.05 L 236.744 165.829 L 234.866 165.829 L 234.866 181.05 L 224.446 181.05 L 224.446 140.247 L 237.467 140.247 C 242.944 140.254 247.176 141.287 250.021 143.298 C 252.859 145.371 254.365 148.618 254.365 152.837 Z M 249.439 144.112 C 246.768 142.179 242.826 141.24 237.467 141.247 L 225.446 141.247 L 225.446 180.05 L 233.866 180.05 L 233.866 164.829 L 237.328 164.829 L 245.944 180.05 L 255.407 180.05 L 245.14 163.504 L 245.697 163.285 C 247.866 162.432 249.656 161.174 251.163 159.443 C 252.664 157.757 253.365 155.609 253.365 152.837 C 253.365 148.824 252.113 145.984 249.439 144.112 Z M 242.883 157.805 C 241.718 158.814 239.99 159.357 237.869 159.368 L 233.866 159.368 L 233.866 146.852 L 237.496 146.852 C 239.76 146.86 241.575 147.348 242.785 148.264 C 243.983 149.238 244.658 150.829 244.658 152.837 C 244.658 155.026 244.024 156.743 242.883 157.805 Z M 243.658 152.837 C 243.658 151.015 243.213 149.82 242.171 149.054 C 241.142 148.226 239.634 147.844 237.496 147.852 L 234.866 147.852 L 234.866 158.368 L 237.869 158.368 C 239.844 158.379 241.238 157.964 242.217 157.059 C 243.219 156.205 243.658 154.86 243.658 152.837 Z M 289.685 153.699 C 289.685 156.844 288.975 159.527 287.622 161.613 C 286.248 163.68 284.292 165.281 281.853 166.294 C 279.429 167.3 276.574 167.807 273.39 167.811 L 269.582 167.811 L 269.582 181.05 L 259.163 181.05 L 259.163 140.247 L 272.184 140.247 C 277.644 140.255 281.975 141.374 285.027 143.558 C 288.075 145.8 289.685 149.249 289.685 153.699 Z M 284.441 144.368 C 281.557 142.264 277.52 141.239 272.184 141.247 L 260.163 141.247 L 260.163 180.05 L 268.582 180.05 L 268.582 166.811 L 273.39 166.811 C 276.486 166.815 279.145 166.336 281.469 165.37 C 283.778 164.411 285.516 163.017 286.786 161.063 C 288.073 159.127 288.685 156.718 288.685 153.699 C 288.685 149.457 287.327 146.414 284.441 144.368 Z M 278.05 159.222 C 276.781 160.357 274.971 160.963 272.787 160.976 L 268.582 160.976 L 268.582 146.967 L 272.299 146.967 C 274.762 146.977 276.736 147.543 278.012 148.655 C 279.297 149.775 279.978 151.551 279.978 153.727 C 279.978 156.144 279.294 158.038 278.05 159.222 Z M 278.978 153.727 C 278.978 151.729 278.463 150.375 277.355 149.409 C 276.237 148.434 274.622 147.957 272.299 147.967 L 269.582 147.967 L 269.582 159.976 L 272.787 159.976 C 274.815 159.989 276.287 159.513 277.374 158.486 C 278.484 157.506 278.978 155.982 278.978 153.727 Z M 313.117 172.463 L 302.244 172.463 L 300.147 181.05 L 289.228 181.05 L 301.711 140.247 L 313.88 140.247 L 326.363 181.05 L 315.214 181.05 Z M 313.903 171.463 L 316 180.05 L 325.011 180.05 L 313.14 141.247 L 302.451 141.247 L 290.58 180.05 L 299.361 180.05 L 301.458 171.463 Z M 312.596 165.628 L 302.707 165.628 L 307.652 145.42 Z M 303.981 164.628 L 311.322 164.628 L 307.652 149.628 Z M 347.377 148.455 L 347.377 181.05 L 336.958 181.05 L 336.958 148.455 L 325.787 148.455 L 325.787 140.247 L 359.08 140.247 L 357.969 148.455 Z M 346.377 147.455 L 357.095 147.455 L 357.936 141.247 L 326.787 141.247 L 326.787 147.455 L 337.958 147.455 L 337.958 180.05 L 346.377 180.05 Z M 382.034 172.463 L 371.161 172.463 L 369.064 181.05 L 358.145 181.05 L 370.627 140.247 L 382.797 140.247 L 395.279 181.05 L 384.131 181.05 Z M 382.82 171.463 L 384.917 180.05 L 393.927 180.05 L 382.057 141.247 L 371.367 141.247 L 359.497 180.05 L 368.278 180.05 L 370.375 171.463 Z M 381.513 165.628 L 371.624 165.628 L 376.569 145.42 Z M 372.898 164.628 L 380.239 164.628 L 376.569 149.628 Z M 412.611 182.026 C 406.867 182.026 402.362 180.132 399.289 176.491 C 396.264 172.829 394.708 167.466 394.708 160.562 C 394.708 155.991 395.558 152.064 397.236 148.912 C 398.913 145.761 401.239 143.325 404.093 141.69 C 406.95 140.076 410.194 139.242 413.702 139.242 C 416.657 139.242 419.21 139.718 421.26 140.636 C 423.287 141.556 425.127 142.789 426.712 144.291 L 427.077 144.637 L 421.453 150.457 L 421.095 150.138 C 419.913 149.085 418.815 148.33 417.741 147.834 C 416.686 147.335 415.528 147.105 414.162 147.105 C 412.453 147.105 411.009 147.525 409.691 148.44 C 408.364 149.328 407.36 150.716 406.587 152.718 C 405.796 154.722 405.414 157.325 405.414 160.62 C 405.414 164.06 405.686 166.75 406.244 168.758 C 406.783 170.747 407.552 172.084 408.638 172.904 C 409.706 173.752 411.008 174.134 412.697 174.134 C 413.604 174.134 414.419 174.034 415.21 173.821 C 416.008 173.609 416.535 173.407 417.136 173.118 L 417.136 164.824 L 412.204 164.824 L 411.147 157.219 L 427.039 157.219 L 427.039 177.786 L 426.801 177.932 C 424.782 179.171 422.587 180.173 420.272 180.912 C 417.945 181.648 415.365 182.026 412.611 182.026 Z M 419.97 179.958 C 422.229 179.241 424.144 178.367 426.039 177.225 L 426.039 158.219 L 412.295 158.219 L 413.074 163.824 L 418.136 163.824 L 418.136 173.734 L 417.865 173.873 C 417.131 174.248 416.316 174.559 415.468 174.787 C 414.611 175.014 413.666 175.134 412.697 175.134 C 410.862 175.134 409.254 174.626 408.026 173.694 C 406.814 172.732 405.869 171.131 405.28 169.024 C 404.706 166.934 404.414 164.11 404.414 160.62 C 404.414 157.251 404.836 154.466 405.655 152.354 C 406.49 150.239 407.678 148.62 409.127 147.614 C 410.584 146.633 412.309 146.105 414.162 146.105 C 415.628 146.105 416.998 146.391 418.163 146.928 C 419.309 147.464 420.289 148.138 421.397 149.076 L 425.653 144.672 C 424.23 143.385 422.803 142.427 420.848 141.548 C 418.914 140.666 416.567 140.242 413.702 140.242 C 410.318 140.242 407.32 140.996 404.587 142.56 C 401.849 144.103 399.733 146.349 398.118 149.382 C 396.504 152.414 395.708 156.097 395.708 160.562 C 395.708 167.328 397.128 172.371 400.057 175.851 C 402.938 179.35 407.059 181.026 412.611 181.026 C 415.293 181.026 417.721 180.676 419.97 179.959 Z M 462.043 160.62 C 462.043 164.873 461.425 168.635 460.201 171.813 C 458.971 175.004 457.091 177.544 454.673 179.33 C 452.232 181.1 449.16 182.026 445.605 182.026 C 442.069 182.026 439.005 181.123 436.555 179.392 C 434.126 177.643 432.247 175.121 431.009 171.942 C 429.789 168.771 429.166 164.967 429.166 160.62 C 429.166 156.367 429.789 152.61 431.009 149.441 C 432.247 146.261 434.123 143.723 436.551 141.937 C 439.002 140.166 442.068 139.242 445.605 139.242 C 449.158 139.242 452.227 140.14 454.668 141.862 C 457.088 143.6 458.962 146.117 460.2 149.297 C 461.42 152.467 462.043 156.272 462.043 160.62 Z M 459.268 149.657 C 458.094 146.595 456.396 144.306 454.088 142.676 C 451.799 141.028 449.02 140.242 445.605 140.242 C 442.21 140.242 439.439 141.05 437.141 142.745 C 434.821 144.423 433.115 146.739 431.941 149.801 C 430.749 152.872 430.166 156.449 430.166 160.62 C 430.166 164.887 430.749 168.511 431.941 171.582 C 433.115 174.643 434.818 176.937 437.137 178.578 C 439.435 180.236 442.209 181.026 445.605 181.026 C 449.018 181.026 451.794 180.218 454.083 178.524 C 456.393 176.844 458.085 174.522 459.267 171.453 C 460.455 168.371 461.043 164.791 461.043 160.62 C 461.043 156.352 460.46 152.727 459.268 149.657 Z M 450.933 171.454 C 450.427 172.633 449.704 173.595 448.829 174.201 C 447.952 174.809 446.822 175.134 445.605 175.134 C 444.434 175.134 443.334 174.812 442.469 174.212 C 441.609 173.614 440.881 172.669 440.353 171.508 C 439.337 169.219 438.815 165.556 438.815 160.62 C 438.815 155.704 439.326 152.047 440.322 149.751 C 440.841 148.582 441.567 147.631 442.434 147.03 C 443.303 146.427 444.415 146.105 445.605 146.105 C 446.794 146.105 447.906 146.426 448.775 147.026 C 449.641 147.624 450.367 148.572 450.887 149.736 C 451.882 152.022 452.394 155.684 452.394 160.62 C 452.394 165.496 451.898 169.14 450.933 171.454 Z M 451.394 160.62 C 451.394 155.752 450.928 152.292 449.971 150.138 C 449.515 149.08 448.949 148.362 448.207 147.849 C 447.468 147.339 446.656 147.105 445.605 147.105 C 444.555 147.105 443.742 147.34 443.003 147.852 C 442.261 148.367 441.695 149.089 441.238 150.151 C 440.28 152.315 439.815 155.772 439.815 160.62 C 439.815 165.486 440.289 168.945 441.265 171.098 C 441.732 172.157 442.301 172.878 443.04 173.39 C 443.774 173.9 444.574 174.134 445.605 174.134 C 446.685 174.134 447.514 173.896 448.259 173.379 C 449.007 172.861 449.569 172.136 450.011 171.066 C 450.942 168.88 451.394 165.43 451.394 160.62 Z M 474.086 158.745 C 474.248 160.917 474.331 163.186 474.331 165.531 L 474.331 181.05 L 465.319 181.05 L 465.319 140.247 L 477.93 140.247 L 486.421 166.846 C 486.394 166.61 486.351 166.239 486.286 165.674 C 485.959 162.824 485.795 159.589 485.795 155.996 L 485.795 140.247 L 494.807 140.247 L 494.807 181.05 L 482.515 181.05 L 473.628 153.902 C 473.802 155.391 473.955 157.007 474.086 158.745 Z M 493.807 180.05 L 493.807 141.247 L 486.795 141.247 L 486.795 155.996 C 486.795 159.563 486.955 162.742 487.28 165.56 C 487.604 168.388 487.918 170.701 488.224 172.512 L 487.255 172.747 L 477.2 141.247 L 466.319 141.247 L 466.319 180.05 L 473.331 180.05 L 473.331 165.531 C 473.331 163.204 473.25 160.973 473.088 158.819 C 472.926 156.661 472.731 154.708 472.502 152.944 C 472.272 151.176 472.072 149.731 471.901 148.604 L 472.87 148.373 L 483.239 180.05 Z" style="fill: none;"/>
    </g>
  </g>
</svg>